<?xml version="1.0" standalone="no"?>
<!DOCTYPE svg PUBLIC "-//W3C//DTD SVG 20010904//EN"
 "http://www.w3.org/TR/2001/REC-SVG-20010904/DTD/svg10.dtd">
<svg version="1.0" xmlns="http://www.w3.org/2000/svg"
 width="512.000000pt" height="512.000000pt" viewBox="0 0 512.000000 512.000000"
 preserveAspectRatio="xMidYMid meet">
<metadata>
Created by potrace 1.14, written by Peter Selinger 2001-2017
</metadata>
<g transform="translate(0.000000,512.000000) scale(0.100000,-0.100000)"
fill="#000000" stroke="none">
<path d="M320 5113 c-65 -24 -81 -103 -31 -146 25 -21 42 -25 137 -30 330 -18
536 -166 604 -433 11 -42 20 -106 20 -140 0 -77 13 -107 55 -129 43 -24 97
-14 126 23 20 25 21 35 15 123 -22 346 -204 584 -526 689 -116 37 -347 62
-400 43z"/>
<path d="M1043 3248 c4 -966 2 -947 77 -1169 198 -594 736 -1016 1407 -1104
94 -12 274 -15 1039 -15 l924 0 0 804 c0 482 -4 845 -10 907 -75 744 -688
1328 -1500 1429 -53 6 -426 10 -1013 10 l-928 0 4 -862z"/>
<path d="M1078 809 c-118 -28 -238 -130 -278 -237 -31 -83 -25 -195 15 -275
71 -142 228 -226 399 -214 100 6 171 37 244 103 87 78 125 159 126 262 0 66
-4 86 -30 142 -82 172 -284 265 -476 219z m167 -160 c61 -17 112 -59 140 -113
38 -76 29 -148 -27 -212 -49 -55 -102 -78 -178 -78 -155 1 -256 123 -215 260
33 112 159 176 280 143z"/>
<path d="M4388 801 c-208 -67 -318 -258 -259 -447 27 -89 77 -155 154 -205 87
-56 151 -73 259 -67 75 5 99 11 155 39 84 43 150 107 188 184 25 52 29 71 30
145 0 77 -3 92 -33 152 -85 173 -302 260 -494 199z m227 -165 c58 -27 88 -57
110 -108 30 -74 13 -163 -42 -214 -148 -138 -392 -54 -393 135 -1 155 177 257
325 187z"/>
</g>
</svg>
