<?xml version="1.0" encoding="utf-8"?><svg viewBox="0 0 200 60" xmlns="http://www.w3.org/2000/svg" xmlns:xlink="http://www.w3.org/1999/xlink"><style>:root>svg{display:none}:root>svg:target{display:block}</style><svg viewBox="0 0 20 32" id="icon-arrow-next" xmlns="http://www.w3.org/2000/svg"><path d="M18.964 14.985L2.951.392a1.35 1.35 0 00-1.903 0 1.335 1.335 0 000 1.894L16.095 16 1.05 29.714a1.335 1.335 0 000 1.894 1.35 1.35 0 001.903 0l16.013-14.593c.28-.279.4-.648.382-1.014a1.33 1.33 0 00-.383-1.016z"/></svg><svg viewBox="0 0 20 32" id="icon-arrow-prev" xmlns="http://www.w3.org/2000/svg"><path d="M1.038 17.015l16.014 14.593a1.35 1.35 0 001.903 0 1.335 1.335 0 000-1.894L3.907 16 18.953 2.286a1.335 1.335 0 000-1.894 1.35 1.35 0 00-1.903 0L1.037 14.985c-.28.279-.4.648-.382 1.014a1.33 1.33 0 00.383 1.016z"/></svg><svg viewBox="0 0 8 4" id="icon-arrow_" xmlns="http://www.w3.org/2000/svg"><path d="M3.477 3.895L.223.625a.368.368 0 010-.516.36.36 0 01.515 0l2.996 3.008L6.727.11a.36.36 0 01.515 0 .365.365 0 010 .52l-3.25 3.266a.368.368 0 01-.515 0zm0 0"/></svg><svg viewBox="0 0 32 31" id="icon-cart" xmlns="http://www.w3.org/2000/svg"><path d="M31.798 4.039a.923.923 0 00-.721-.347H6.509L5.822.715A.923.923 0 004.923 0h-4a.923.923 0 000 1.846H4.19l4.663 20.208c.097.419.47.715.9.715h18.494a.923.923 0 100-1.846h-17.76l-.71-3.077h18.532c.431 0 .806-.3.9-.72l2.77-12.308a.923.923 0 00-.18-.78zM27.569 16H9.35L6.937 5.538h22.987L27.57 16zM13.538 24a3.388 3.388 0 00-3.384 3.385 3.388 3.388 0 003.384 3.384 3.388 3.388 0 003.385-3.384A3.388 3.388 0 0013.538 24zm0 4.923A1.54 1.54 0 0112 27.385c0-.849.69-1.539 1.538-1.539.849 0 1.539.69 1.539 1.539a1.54 1.54 0 01-1.539 1.538zM24.615 24a3.388 3.388 0 00-3.384 3.385 3.388 3.388 0 003.384 3.384A3.388 3.388 0 0028 27.385 3.388 3.388 0 0024.615 24zm0 4.923a1.54 1.54 0 01-1.538-1.538c0-.849.69-1.539 1.538-1.539.849 0 1.539.69 1.539 1.539a1.54 1.54 0 01-1.539 1.538z"/></svg><svg viewBox="0 0 32 23" id="icon-del-address" xmlns="http://www.w3.org/2000/svg"><path d="M31.917 14.34l-1.62-2.479a3.866 3.866 0 00-3.25-1.75h-4.19v-2.41a2.671 2.671 0 00-2.669-2.668h-7.841A4.986 4.986 0 007.459.99 4.984 4.984 0 002.48 5.97c0 1.726.884 3.249 2.222 4.142H.508a.508.508 0 100 1.016h5.08v1.016H3.554a.508.508 0 000 1.016h2.032v1.015H.508a.508.508 0 100 1.016h5.08v2.25a2.548 2.548 0 00-1.525 2.328v.502c0 .28.228.508.509.508h4.505a2.811 2.811 0 002.732 2.173c1.33 0 2.445-.93 2.733-2.173h9.773a2.812 2.812 0 002.733 2.173c1.329 0 2.444-.93 2.733-2.173h1.711c.28 0 .508-.227.508-.508v-5.654a.508.508 0 00-.083-.278zM3.497 5.97a3.968 3.968 0 013.962-3.963 3.967 3.967 0 013.963 3.963 3.967 3.967 0 01-3.963 3.963A3.968 3.968 0 013.496 5.97zm3.106 9.221H7.62a.508.508 0 100-1.016H6.603V13.16h3.556a.508.508 0 100-1.016H6.603v-1.016h6.603a.508.508 0 100-1.016h-2.99a4.976 4.976 0 002.218-4.064h7.755c.91 0 1.652.742 1.652 1.653v9.522H6.603v-2.031zm15.238 4.572H14.59a2.797 2.797 0 00-.722-1.524h7.974v1.524zM6.61 18.239h3.142c-.382.413-.642.94-.721 1.524H5.079a1.532 1.532 0 011.53-1.524zm5.2 3.697a1.794 1.794 0 01-1.793-1.792c0-.988.805-1.792 1.792-1.792.989 0 1.793.804 1.793 1.792s-.804 1.792-1.793 1.792zm15.238 0a1.794 1.794 0 01-1.792-1.792c0-.988.804-1.792 1.792-1.792s1.792.804 1.792 1.792-.804 1.792-1.792 1.792zm3.936-2.173h-1.157a2.81 2.81 0 00-2.78-2.427 2.81 2.81 0 00-2.779 2.427h-1.41v-8.635h4.188c.976 0 1.874.482 2.401 1.288l1.537 2.352v4.995z"/><path d="M27.878 20.144a.83.83 0 11-1.661 0 .83.83 0 011.662 0zM12.64 20.144a.83.83 0 11-1.661 0 .83.83 0 011.661 0zM8.127 5.97V3.748a.508.508 0 10-1.016 0v2.056L6.074 7.226a.507.507 0 10.821.598L8.03 6.27a.508.508 0 00.097-.3zM26.876 11.636h-.971a.508.508 0 00-.508.508v3.555c0 .281.227.508.508.508h3.418a.874.874 0 00.764-.44.872.872 0 00.003-.88l-1.187-2.075a2.34 2.34 0 00-2.027-1.176zm-.463 3.556v-2.54h.463c.473 0 .911.254 1.145.664l1.072 1.875h-2.68z"/></svg><svg viewBox="0 0 33 32" id="icon-facebook" xmlns="http://www.w3.org/2000/svg"><g clip-path="url(#fclip0_20_50)"><path d="M21.65 5.313h2.901V.225C24.051.156 22.33 0 20.325 0c-4.183 0-7.048 2.65-7.048 7.519V12H8.66v5.688h4.616V32h5.659V17.69h4.429L24.068 12h-5.133V8.083c0-1.644.44-2.77 2.715-2.77z"/></g><defs><clipPath id="fclip0_20_50"><path transform="translate(.469)" d="M0 0h31.778v32H0z"/></clipPath></defs></svg><svg viewBox="0 0 35 35" id="icon-group-6" xmlns="http://www.w3.org/2000/svg"><path d="M32.4 28h-7.8c-1.436 0-2.6.627-2.6 1.4v4.2c0 .773 1.164 1.4 2.6 1.4h7.8c1.436 0 2.6-.627 2.6-1.4v-4.2c0-.773-1.164-1.4-2.6-1.4zM10.4 28H2.6c-1.436 0-2.6.627-2.6 1.4v4.2c0 .773 1.164 1.4 2.6 1.4h7.8c1.436 0 2.6-.627 2.6-1.4v-4.2c0-.773-1.164-1.4-2.6-1.4zM32.4 14h-7.8c-1.436 0-2.6.627-2.6 1.4v4.2c0 .773 1.164 1.4 2.6 1.4h7.8c1.436 0 2.6-.627 2.6-1.4v-4.2c0-.773-1.164-1.4-2.6-1.4zM10.4 14H2.6c-1.436 0-2.6.627-2.6 1.4v4.2c0 .773 1.164 1.4 2.6 1.4h7.8c1.436 0 2.6-.627 2.6-1.4v-4.2c0-.773-1.164-1.4-2.6-1.4zM32.4 0h-7.8C23.164 0 22 .627 22 1.4v4.2c0 .773 1.164 1.4 2.6 1.4h7.8c1.436 0 2.6-.627 2.6-1.4V1.4C35 .627 33.836 0 32.4 0zM10.4 0H2.6C1.164 0 0 .627 0 1.4v4.2C0 6.373 1.164 7 2.6 7h7.8c1.436 0 2.6-.627 2.6-1.4V1.4C13 .627 11.836 0 10.4 0z"/></svg><svg viewBox="0 0 36 34" id="icon-group-9" xmlns="http://www.w3.org/2000/svg"><path d="M6.044 26.445H1.511c-.834 0-1.511.676-1.511 1.51v4.534C0 33.324.677 34 1.511 34h4.533c.835 0 1.512-.676 1.512-1.511v-4.533c0-.835-.677-1.511-1.512-1.511zM20.211 26.445h-4.533c-.835 0-1.511.676-1.511 1.51v4.534c0 .835.676 1.511 1.51 1.511h4.534c.835 0 1.511-.676 1.511-1.511v-4.533c0-.835-.676-1.511-1.51-1.511zM34.378 26.445h-4.534c-.834 0-1.51.676-1.51 1.51v4.534c0 .835.676 1.511 1.51 1.511h4.534c.834 0 1.51-.676 1.51-1.511v-4.533c0-.835-.676-1.511-1.51-1.511zM6.044 13.222H1.511C.677 13.222 0 13.9 0 14.733v4.534c0 .834.677 1.51 1.511 1.51h4.533c.835 0 1.512-.676 1.512-1.51v-4.534c0-.834-.677-1.51-1.512-1.51zM20.211 13.222h-4.533c-.835 0-1.511.677-1.511 1.511v4.534c0 .834.676 1.51 1.51 1.51h4.534c.835 0 1.511-.676 1.511-1.51v-4.534c0-.834-.676-1.51-1.51-1.51zM34.378 13.222h-4.534c-.834 0-1.51.677-1.51 1.511v4.534c0 .834.676 1.51 1.51 1.51h4.534c.834 0 1.51-.676 1.51-1.51v-4.534c0-.834-.676-1.51-1.51-1.51zM6.044 0H1.511C.677 0 0 .677 0 1.511v4.533c0 .835.677 1.512 1.511 1.512h4.533c.835 0 1.512-.677 1.512-1.512V1.511C7.556.677 6.879 0 6.044 0zM20.211 0h-4.533c-.835 0-1.511.677-1.511 1.511v4.533c0 .835.676 1.512 1.51 1.512h4.534c.835 0 1.511-.677 1.511-1.512V1.511c0-.834-.676-1.511-1.51-1.511zM34.378 0h-4.534c-.834 0-1.51.677-1.51 1.511v4.533c0 .835.676 1.512 1.51 1.512h4.534c.834 0 1.51-.677 1.51-1.512V1.511c0-.834-.676-1.511-1.51-1.511z"/></svg><svg viewBox="0 0 24 22" id="icon-heart" xmlns="http://www.w3.org/2000/svg"><path d="M22.249 2.082a6.081 6.081 0 00-4.624-2.083c-2.529 0-4.13 1.51-5.028 2.777a9.212 9.212 0 00-.597.969 9.212 9.212 0 00-.597-.969C10.505 1.51 8.903 0 6.375 0c-1.798 0-3.44.74-4.624 2.083C.621 3.363 0 5.079 0 6.914c0 1.997.78 3.854 2.454 5.845 1.496 1.78 3.648 3.613 6.14 5.737.93.792 1.89 1.61 2.912 2.505l.03.027a.701.701 0 00.927 0l.03-.027c1.023-.895 1.984-1.713 2.913-2.505 2.492-2.124 4.644-3.958 6.14-5.737C23.22 10.768 24 8.91 24 6.914c0-1.835-.622-3.551-1.751-4.832zm-7.756 15.344c-.8.682-1.624 1.384-2.493 2.14-.869-.756-1.693-1.458-2.494-2.14-4.877-4.157-8.1-6.903-8.1-10.512 0-1.492.497-2.878 1.4-3.902a4.694 4.694 0 013.569-1.607c1.928 0 3.174 1.188 3.88 2.184a8.335 8.335 0 011.076 2.14.703.703 0 001.338 0 8.336 8.336 0 011.076-2.14c.706-.996 1.952-2.184 3.88-2.184 1.389 0 2.656.57 3.569 1.607.903 1.024 1.4 2.41 1.4 3.902 0 3.61-3.223 6.355-8.1 10.512z"/></svg><svg viewBox="0 0 33 32" id="icon-instagram" xmlns="http://www.w3.org/2000/svg"><g clip-path="url(#jclip0_20_42)"><path d="M16.449 7.784c-4.506 0-8.154 3.677-8.154 8.21 0 4.538 3.652 8.211 8.154 8.211 4.505 0 8.153-3.677 8.153-8.21 0-4.538-3.651-8.211-8.153-8.211zm0 13.54c-2.925 0-5.293-2.385-5.293-5.33 0-2.943 2.369-5.329 5.293-5.329 2.923 0 5.292 2.386 5.292 5.33.001 2.944-2.367 5.329-5.292 5.329z"/><path d="M22.995.101c-2.924-.137-10.165-.13-13.091 0-2.572.122-4.84.747-6.669 2.588C.18 5.767.57 9.913.57 15.995c0 6.224-.344 10.274 2.665 13.305 3.068 3.088 7.246 2.684 13.214 2.684 6.122 0 8.235.004 10.4-.84 2.944-1.15 5.166-3.8 5.383-8.559.138-2.945.13-10.236 0-13.182C31.97 3.785 28.976.379 22.995.1zm4.628 27.163C25.619 29.28 22.84 29.1 16.41 29.1c-6.62 0-9.275.099-11.212-1.857-2.231-2.236-1.827-5.827-1.827-11.27C3.37 8.606 2.62 3.3 9.96 2.922c1.688-.06 2.184-.08 6.43-.08l.06.04c7.056 0 12.592-.744 12.925 6.648.075 1.686.092 2.193.092 6.462 0 6.59.124 9.279-1.845 11.27z"/><path d="M24.925 9.379a1.912 1.912 0 001.906-1.92c0-1.059-.853-1.918-1.905-1.918A1.912 1.912 0 0023.02 7.46c0 1.06.853 1.919 1.905 1.919z"/></g><defs><clipPath id="jclip0_20_42"><path transform="translate(.554)" d="M0 0h31.778v32H0z"/></clipPath></defs></svg><svg viewBox="0 0 200 60" id="icon-logo" xmlns="http://www.w3.org/2000/svg"><path d="M78.9 30.18c-2.109 0-3.863-.252-5.263-.756-1.382-.504-2.418-1.335-3.108-2.492-.672-1.176-1.008-2.744-1.008-4.704 0-1.997.345-3.565 1.036-4.704.71-1.139 1.754-1.95 3.136-2.436 1.4-.485 3.136-.728 5.208-.728 2.128 0 3.883.252 5.264.756 1.381.485 2.408 1.307 3.08 2.464.69 1.139 1.036 2.688 1.036 4.648 0 1.997-.355 3.584-1.064 4.76-.69 1.157-1.736 1.979-3.136 2.464-1.382.485-3.108.728-5.18.728zm0-2.324c1.27 0 2.316-.075 3.137-.224.84-.168 1.484-.448 1.932-.84.467-.41.784-.97.952-1.68.186-.728.28-1.661.28-2.8 0-1.157-.093-2.1-.28-2.828-.168-.747-.486-1.325-.952-1.736-.448-.41-1.092-.69-1.932-.84-.822-.168-1.867-.252-3.136-.252-1.25 0-2.287.084-3.108.252-.822.15-1.466.43-1.932.84-.467.41-.794.99-.98 1.736-.168.728-.252 1.67-.252 2.828 0 1.139.093 2.072.28 2.8.186.71.513 1.27.98 1.68.467.392 1.11.672 1.932.84.821.15 1.848.224 3.08.224zm-1.483 4.172l.084-8.988-.084-10.556h2.996l-.112 8.624L80.413 32l-2.996.028zM92.225 32l.112-9.072-.112-10.444.616-.056 1.652-.14c.672-.056 1.41-.103 2.212-.14a50.111 50.111 0 012.324-.056c1.773 0 3.145.56 4.116 1.68.989 1.101 1.484 2.763 1.484 4.984 0 1.381-.177 2.53-.532 3.444-.355.896-.831 1.596-1.428 2.1a5.317 5.317 0 01-1.988 1.092 8.215 8.215 0 01-2.24.308c-.616 0-1.25-.019-1.904-.056a18.912 18.912 0 00-1.344-.084V32h-2.968zm6.356-8.736c.56 0 1.008-.037 1.344-.112.355-.075.635-.205.84-.392.28-.28.467-.775.56-1.484.112-.71.168-1.643.168-2.8 0-.933-.047-1.643-.14-2.128-.075-.504-.177-.859-.308-1.064-.131-.224-.261-.373-.392-.448-.168-.13-.448-.233-.84-.308a6.114 6.114 0 00-1.4-.14c-.635 0-1.241.028-1.82.084a24.49 24.49 0 00-1.4.168v8.316c.187.019.607.075 1.26.168.672.093 1.381.14 2.128.14zM108.823 32V12.484h10.248v2.576l-8.596-.112 1.372-1.316-.224 8.288-1.288-1.092h8.036v2.492h-8.036l1.288-1.148.224 8.652-1.372-1.344 8.596-.056V32h-10.248zm14.71 0V12.484h2.968l-.084 9.464v8.82l-1.344-1.344h8.764l-1.344 1.344.028-8.68-.056-9.604h2.968l-.084 9.604.056 8.68-1.344-1.344h8.68l-1.344 1.344v-8.764l-.084-9.52h2.968V32h-20.748zm32.859.392a9.322 9.322 0 01-2.912-.448c-.915-.299-1.727-.821-2.436-1.568-.691-.747-1.232-1.783-1.624-3.108-.392-1.325-.588-3.015-.588-5.068 0-2.053.196-3.733.588-5.04.392-1.325.933-2.352 1.624-3.08.709-.747 1.521-1.26 2.436-1.54a9.322 9.322 0 012.912-.448c1.027 0 1.988.15 2.884.448.915.28 1.717.793 2.408 1.54.709.728 1.26 1.745 1.652 3.052.392 1.307.588 2.996.588 5.068 0 2.053-.196 3.743-.588 5.068-.392 1.325-.943 2.361-1.652 3.108-.691.747-1.493 1.27-2.408 1.568a9.061 9.061 0 01-2.884.448zm0-2.66c.747 0 1.4-.084 1.96-.252a2.537 2.537 0 001.372-1.008c.373-.523.644-1.279.812-2.268.187-.99.28-2.305.28-3.948 0-1.624-.084-2.93-.252-3.92-.168-1.008-.429-1.764-.784-2.268a2.633 2.633 0 00-1.4-1.064c-.56-.187-1.223-.28-1.988-.28-.803 0-1.484.093-2.044.28-.541.187-.989.541-1.344 1.064-.355.504-.616 1.26-.784 2.268-.168.99-.252 2.305-.252 3.948 0 1.624.084 2.93.252 3.92.168.99.429 1.745.784 2.268.373.504.84.84 1.4 1.008.56.168 1.223.252 1.988.252zM179.295 32l-7.756-10.108 7.196-9.408h3.584l-7.42 9.24v.168L183.047 32h-3.752zm-10.808 0l.084-9.912-.084-9.604h2.996V32h-2.996zM82.28 50.168c-.44 0-.856-.064-1.248-.192a2.496 2.496 0 01-1.044-.672c-.296-.32-.528-.764-.696-1.332-.168-.568-.252-1.292-.252-2.172 0-.88.084-1.6.252-2.16.168-.568.4-1.008.696-1.32.304-.32.652-.54 1.044-.66a3.996 3.996 0 011.248-.192c.44 0 .852.064 1.236.192.392.12.736.34 1.032.66.304.312.54.748.708 1.308.168.56.252 1.284.252 2.172 0 .88-.084 1.604-.252 2.172-.168.568-.404 1.012-.708 1.332a2.41 2.41 0 01-1.032.672 3.884 3.884 0 01-1.236.192zm0-1.14c.32 0 .6-.036.84-.108.24-.072.436-.216.588-.432.16-.224.276-.548.348-.972.08-.424.12-.988.12-1.692 0-.696-.036-1.256-.108-1.68-.072-.432-.184-.756-.336-.972a1.128 1.128 0 00-.6-.456c-.24-.08-.524-.12-.852-.12-.344 0-.636.04-.876.12-.232.08-.424.232-.576.456-.152.216-.264.54-.336.972-.072.424-.108.988-.108 1.692 0 .696.036 1.256.108 1.68.072.424.184.748.336.972.16.216.36.36.6.432.24.072.524.108.852.108zm5.184.972v-8.364h1.272l-.036 3.972-.564-.42h4.428l-.564.42-.036-3.972h1.272V50h-1.272L92 45.872l.564.42h-4.428l.564-.42.036 4.128h-1.272zm7.4.168l-.215-.948c.112-.016.216-.032.312-.048.096-.024.176-.048.24-.072a.835.835 0 00.372-.24c.088-.104.156-.28.204-.528.056-.248.096-.608.12-1.08l.372-5.616h4.848V50h-1.272l.06-7.272h-2.472l-.312 4.644a8.46 8.46 0 01-.204 1.428c-.096.384-.264.676-.504.876-.168.144-.392.26-.672.348a2.613 2.613 0 01-.876.144zm7.432-.168l2.28-8.364h1.728l2.28 8.364h-1.296l-.648-2.556.672.444h-3.72l.648-.444-.636 2.556h-1.308zm1.956-2.628l-.432-.576h3.252l-.432.576-1.296-5.148.708.552h-1.212l.696-.552-1.284 5.148zM109.788 50v-8.364h1.224l-.048 4.248v2.292l3.096-6.54h1.752V50h-1.224l.048-3.852v-3.216L111.3 50h-1.512zm2.988-8.676c-.608 0-1.08-.144-1.416-.432-.328-.288-.508-.748-.54-1.38l.816-.036c.04.288.144.504.312.648.168.144.444.216.828.216.424 0 .72-.072.888-.216.168-.144.272-.36.312-.648l.72.036c-.016.424-.104.772-.264 1.044-.16.264-.38.46-.66.588-.272.12-.604.18-.996.18zM118.167 50v-8.364h1.272l-.036 3.972-.564-.42h4.428l-.564.42-.036-3.972h1.272V50h-1.272l.036-4.128.564.42h-4.428l.564-.42.036 4.128h-1.272zm7.413-3.396v-1.068h2.856v1.068h-2.856zM130.037 50l.288-8.364h1.74l1.74 5.244h.084l1.764-5.244h1.74l.288 8.364h-1.26l-.048-7.032h-.084l-1.716 5.136h-1.44l-1.704-5.136h-.084L131.297 50h-1.26zm8.762 0l2.28-8.364h1.728L145.088 50h-1.297l-.648-2.556.672.444h-3.72l.648-.444-.636 2.556h-1.308zm1.956-2.628l-.432-.576h3.252l-.432.576-1.296-5.148.708.552h-1.212l.696-.552-1.284 5.148zM146.292 50l.048-3.888-.048-4.476.264-.024.708-.06a26.058 26.058 0 011.944-.084c.76 0 1.348.24 1.764.72.424.472.636 1.184.636 2.136 0 .592-.076 1.084-.228 1.476-.152.384-.356.684-.612.9a2.279 2.279 0 01-.852.468 3.52 3.52 0 01-.96.132c-.264 0-.536-.008-.816-.024a8.106 8.106 0 00-.576-.036V50h-1.272zm2.724-3.744c.24 0 .432-.016.576-.048a.755.755 0 00.36-.168c.12-.12.2-.332.24-.636.048-.304.072-.704.072-1.2 0-.4-.02-.704-.06-.912-.032-.216-.076-.368-.132-.456a.513.513 0 00-.168-.192c-.072-.056-.192-.1-.36-.132a2.62 2.62 0 00-.6-.06c-.272 0-.532.012-.78.036-.248.024-.448.048-.6.072v3.564c.08.008.26.032.54.072.288.04.592.06.912.06zM158.037 50l-3.324-4.332 3.084-4.032h1.536l-3.18 3.96v.072L159.645 50h-1.608zm-4.632 0l.036-4.248-.036-4.116h1.284V50h-1.284zm7.231 0v-8.364h4.392v1.104l-3.684-.048.588-.564-.096 3.552-.552-.468h3.444v1.068h-3.444l.552-.492.096 3.708-.588-.576 3.684-.024V50h-4.392zm7.408 0l.024-7.296-2.34.036v-1.104h5.916v1.104l-2.364-.036.024 7.296h-1.26z"/><path opacity=".2" d="M54.648 59.067c0-.512-11.474-.933-25.611-.933-14.138 0-25.612.421-25.612.933S14.9 60 29.037 60c14.17 0 25.611-.421 25.611-.933z"/><path d="M29.398 11.81c11.146 0 20.187 8.277 20.187 18.481v18.482H29.398c-11.145 0-20.186-8.278-20.186-18.482V11.81h20.186z"/><path opacity=".3" d="M46.692 20.78c-1.677 1.776-2.696 4.093-2.696 6.622 0 3.762 2.236 7.043 5.556 8.819v-5.93c0-3.461-1.019-6.712-2.86-9.511z"/><path d="M38.769 13.947c-3.157 1.655-5.26 4.756-5.26 8.338 0 5.297 4.7 9.602 10.487 9.602 2.038 0 3.945-.542 5.556-1.475v-.12c0-7.104-4.372-13.275-10.783-16.345z"/><path opacity=".5" d="M22.922 15.39c-5.195 0-9.962 1.656-13.71 4.456V30.32c0 10.205 9.04 18.482 20.186 18.482h9.666c3.518-3.552 5.655-8.247 5.655-13.425 0-11.046-9.764-19.986-21.797-19.986z"/><path d="M49.552 48.743l-20.154.03c-11.145 0-20.186-8.278-20.186-18.482V11.84l40.34 36.903z"/><path opacity=".3" d="M12.335 18.432c0 14.026 12.428 25.374 27.716 25.374 1.315 0 2.597-.09 3.846-.24L12.598 14.94a24.621 24.621 0 00-.263 3.492z"/><path opacity=".3" d="M49.552 48.773L9.376 11.99c4.734 6.472 10.192 13.034 15.748 18.452 4.34 4.214 16.866 13.635 24.428 18.33z"/><path opacity=".3" d="M22.395 23.88L9.212 11.84V30.32c0 8.157 5.786 15.08 13.775 17.519-3.419-3.161-5.523-7.495-5.523-12.251 0-4.515 1.874-8.609 4.931-11.71z"/><path opacity=".3" d="M40.347 40.345c-3.42 3.822-8.614 6.29-14.434 6.29-3.88 0-7.496-1.083-10.488-2.95 3.617 3.161 8.516 5.118 13.94 5.118h20.187v-.03l-9.205-8.428z"/><path opacity=".3" d="M10.395 22.887c0-2.98.56-5.87 1.611-8.519L9.212 11.84V30.32c0 10.204 9.04 18.482 20.186 18.482h20.187v-.03l-2.005-1.836a29.736 29.736 0 01-9.337 1.474c-15.387-.03-27.848-11.438-27.848-25.524z"/><path d="M49.224 52.355c1.413-.362 2.893.421 3.254 1.715.395 1.295-.46 2.65-1.907 2.98-1.413.361-2.893-.421-3.254-1.715-.362-1.295.493-2.62 1.907-2.98zm-.526-1.836c-2.532.632-4.044 2.98-3.354 5.297.657 2.318 3.255 3.702 5.786 3.07 2.532-.632 4.044-3.01 3.354-5.297-.658-2.318-3.255-3.672-5.787-3.07z"/><path opacity=".5" d="M52.05 56.177a2.821 2.821 0 01-1.446.903c-1.414.361-2.893-.422-3.255-1.716a2.298 2.298 0 01.888-2.498c-.395-.512-.724-1.084-1.052-1.656-1.578 1.024-2.367 2.86-1.841 4.666.657 2.318 3.254 3.702 5.786 3.07 1.184-.3 2.137-.963 2.762-1.836a34.044 34.044 0 01-1.841-.933z"/><path d="M10.165 52.355c1.413-.331 2.893.451 3.255 1.745.361 1.295-.494 2.65-1.907 2.98-1.414.331-2.894-.451-3.255-1.745-.362-1.295.493-2.65 1.907-2.98zm-.526-1.836c-2.532.602-4.044 2.98-3.387 5.297.658 2.318 3.255 3.702 5.787 3.1 2.531-.602 4.044-2.98 3.419-5.297-.69-2.318-3.288-3.703-5.82-3.1z"/><path opacity=".5" d="M12.96 56.207a2.596 2.596 0 01-1.447.873c-1.414.331-2.893-.452-3.255-1.746-.263-.963.132-1.926.888-2.498-.395-.512-.723-1.084-1.02-1.656-1.577.994-2.4 2.83-1.873 4.636.657 2.317 3.254 3.702 5.786 3.1 1.184-.27 2.17-.963 2.762-1.836-.658-.24-1.25-.542-1.841-.873z"/><path d="M10.494 10.546c-.625 0-1.15-.482-1.15-1.054 0-2.468-.757-4.334-2.204-5.568-2.334-2.017-5.852-1.806-5.885-1.806-.624.06-1.183-.392-1.25-.964C-.06.582.434.071 1.059.011c.197 0 4.537-.301 7.628 2.317 1.972 1.656 2.959 4.064 2.959 7.134 0 .602-.494 1.084-1.151 1.084z"/></svg><svg viewBox="0 0 49 29" id="icon-mastercard" xmlns="http://www.w3.org/2000/svg"><path d="M33.934 0a14.434 14.434 0 00-9.723 3.746A14.444 14.444 0 0014.496.004h-.094C6.445.054 0 6.527 0 14.496 0 22.5 6.492 28.992 14.492 28.992c3.738 0 7.149-1.418 9.719-3.746a14.226 14.226 0 01-1.484-1.582h2.996c-.453.55-.946 1.07-1.473 1.55h-.004c-.012.016-.023.024-.035.032a14.428 14.428 0 009.727 3.75c8.003-.004 14.492-6.492 14.492-14.5v-.004C48.43 6.488 41.938-.004 33.934 0zm-11.04 5.246h2.754c.407.492.786 1.008 1.125 1.55H21.86c.317-.519.664-1.05 1.036-1.55zm-1.89 3.074h6.605c.235.5.446 1.02.625 1.551H20.22c.082-.148.36-.754.785-1.55zM5.918 18.191l.879-5.543-1.984 5.543H3.75l-.137-5.543-.941 5.543H1.184l1.234-7.351h2.254l.078 4.512 1.52-4.512h2.445L7.496 18.19zm5.266-.011l.05-.59c-.023.004-.496.71-1.586.71-.57 0-1.488-.312-1.488-1.663 0-1.719 1.402-2.29 2.738-2.29.207 0 .66.04.66.04s.051-.106.051-.39c0-.466-.418-.532-.992-.532-1.015 0-1.683.273-1.683.273l.222-1.332s.813-.34 1.871-.34c.547 0 2.121.059 2.121 1.864l-.609 4.25zm5.742-1.875c0 2.05-1.988 1.965-2.336 1.965-1.293 0-1.695-.18-1.73-.192l.206-1.348c0-.011.649.235 1.371.235.415 0 .954-.04.954-.54 0-.741-1.93-.566-1.93-2.331 0-1.559 1.156-2.016 2.3-2.016.88 0 1.423.121 1.423.121l-.196 1.364s-.836-.07-1.054-.07c-.547 0-.848.12-.848.503 0 .774 1.84.395 1.84 2.309zm2.387.539c.136 0 .289-.047.398-.047l-.195 1.312c-.157.043-.594.2-1.157.203-.718.004-1.23-.398-1.23-1.308 0-.613.879-5.656.91-5.688h1.543l-.156.903h.77L20 13.672h-.816l-.438 2.676c-.031.21.027.496.567.496zm3.39-4.797c1.695 0 2.203 1.238 2.203 2.258 0 .406-.203 1.406-.203 1.406h-3.137s-.289 1.234 1.368 1.234c.777 0 1.636-.379 1.636-.379l-.27 1.489s-.5.254-1.628.254c-1.23 0-2.668-.52-2.668-2.7 0-1.89 1.148-3.562 2.7-3.562zm4.09 10.125h-5.145c-.312-.5-.601-1.016-.855-1.555h6.844a15.29 15.29 0 01-.844 1.555zm-.348-3.973h-1.582l.961-5.98h1.438l-.137.867s.512-.941 1.203-.941c.2 0 .297.02.297.02-.203.417-.387.8-.574 1.788-1.07-.379-1.153 1.692-1.606 4.246zm6.035-.09s-.828.211-1.347.211c-1.844 0-2.778-1.27-2.778-3.195 0-2.902 1.735-4.45 3.512-4.45.809 0 1.738.38 1.738.38l-.25 1.633s-.632-.442-1.417-.442c-1.047 0-1.993 1.004-1.993 2.824 0 .899.442 1.735 1.535 1.735.524 0 1.278-.38 1.278-.38zm3.715.07l.055-.59c-.027.005-.496.712-1.586.712-.566 0-1.488-.313-1.488-1.664 0-1.719 1.402-2.29 2.734-2.29.211 0 .664.04.664.04s.055-.106.055-.39c0-.466-.422-.532-.996-.532-1.016 0-1.684.273-1.684.273l.227-1.332s.812-.34 1.87-.34c.544 0 2.118.059 2.118 1.864l-.605 4.25h-1.364zm3.207.02H37.82l.961-5.98h1.442l-.141.867s.516-.941 1.203-.941c.203 0 .3.02.3.02-.206.417-.39.8-.573 1.788-1.075-.379-1.157 1.692-1.61 4.246zm4.73-.015l.067-.551s-.511.648-1.437.648c-1.282 0-1.91-1.242-1.91-2.508 0-1.957 1.175-3.664 2.59-3.664.91.004 1.492.805 1.492.805l.332-2.062 1.547-.004-1.18 7.336zm3.052-.207a.459.459 0 01-.637.176.438.438 0 01-.172-.176.445.445 0 01-.063-.23.5.5 0 01.063-.235.415.415 0 01.176-.172.441.441 0 01.457 0c.078.039.137.098.176.172a.459.459 0 010 .465zm0 0"/></svg><svg viewBox="0 0 26 17" id="icon-nav" xmlns="http://www.w3.org/2000/svg"><path d="M.917 0h24.896v1H.917zM.917 8h19.917v1H.917zM.917 16h24.896v1H.917z"/></svg><svg viewBox="0 0 21 20" id="icon-search" xmlns="http://www.w3.org/2000/svg"><path d="M9.02 16.472C4.477 16.472.78 12.777.78 8.236S4.476 0 9.02 0c4.545 0 8.242 3.695 8.242 8.236s-3.697 8.236-8.242 8.236zm0-14.91c-3.682 0-6.679 2.994-6.679 6.674s2.997 6.675 6.68 6.675 6.68-2.995 6.68-6.675c0-3.68-2.997-6.675-6.68-6.675zm11.53 18.21a.78.78 0 000-1.105l-3.496-3.493a.782.782 0 00-1.105 1.104l3.496 3.493a.779.779 0 001.105 0z"/></svg><svg viewBox="0 0 32 36" id="icon-sidebar-filter" xmlns="http://www.w3.org/2000/svg"><g clip-path="url(#oclip0_862_5407)"><path d="M13.78 28.125H1.14C.51 28.125 0 28.63 0 29.25s.51 1.125 1.139 1.125H13.78c.528 2.567 2.825 4.5 5.58 4.5 2.754 0 5.05-1.933 5.578-4.5h5.809c.628 0 1.139-.504 1.139-1.125 0-.62-.51-1.125-1.14-1.125h-5.808c-.527-2.567-2.824-4.5-5.579-4.5-2.754 0-5.051 1.933-5.579 4.5zm8.996 1.125c0 1.864-1.53 3.375-3.417 3.375-1.887 0-3.416-1.51-3.416-3.375 0-1.864 1.53-3.375 3.416-3.375 1.887 0 3.416 1.51 3.416 3.375zM2.393 16.875H1.139C.51 16.875 0 17.379 0 18s.51 1.125 1.139 1.125h1.254c.527 2.567 2.824 4.5 5.578 4.5 2.755 0 5.052-1.933 5.58-4.5h17.196c.628 0 1.139-.504 1.139-1.125s-.51-1.125-1.14-1.125H13.55c-.527-2.567-2.824-4.5-5.579-4.5-2.754 0-5.051 1.933-5.578 4.5zM11.388 18c0 1.864-1.53 3.375-3.417 3.375-1.887 0-3.416-1.51-3.416-3.375 0-1.864 1.53-3.375 3.416-3.375 1.887 0 3.417 1.51 3.417 3.375zm6.947-12.375H1.14C.51 5.625 0 6.129 0 6.75s.51 1.125 1.139 1.125h17.197c.527 2.567 2.824 4.5 5.578 4.5 2.755 0 5.052-1.933 5.58-4.5h1.253c.628 0 1.139-.504 1.139-1.125 0-.62-.51-1.125-1.14-1.125h-1.253c-.527-2.567-2.824-4.5-5.579-4.5-2.754 0-5.051 1.933-5.579 4.5zm8.996 1.125c0 1.864-1.53 3.375-3.417 3.375-1.887 0-3.416-1.51-3.416-3.375 0-1.864 1.53-3.375 3.416-3.375 1.887 0 3.417 1.51 3.417 3.375z"/></g><defs><clipPath id="oclip0_862_5407"><path d="M0 0h31.886v36H0z"/></clipPath></defs></svg><svg viewBox="0 0 23 23" id="icon-tel" xmlns="http://www.w3.org/2000/svg"><path d="M21.463 16.589l-3.194-3.196a2.276 2.276 0 00-1.617-.662c-.64 0-1.242.252-1.698.708l-1.244 1.243c-.966-.537-2.25-1.275-3.583-2.609-1.332-1.332-2.07-2.612-2.61-3.583l1.244-1.244c.926-.927.945-2.415.043-3.316L5.61.737A2.266 2.266 0 003.993.072 2.39 2.39 0 002.324.75C2.05.97.674 2.186.161 4.69c-.718 3.507.932 6.882 5.695 11.648 5.322 5.32 9.865 5.733 11.13 5.733.264 0 .423-.017.465-.021 2.482-.291 3.37-1.393 4.02-2.198.84-1.043.837-2.416-.008-3.264zm-1.06 2.403c-.61.756-1.186 1.47-3.111 1.697-.001 0-.107.011-.306.011-1.132 0-5.211-.384-10.16-5.331C2.433 10.974.891 7.96 1.504 4.966c.448-2.185 1.635-3.114 1.682-3.15l.04-.03.036-.036a1.03 1.03 0 01.73-.307c.25 0 .479.093.648.263L7.834 4.9c.368.367.348.985-.043 1.377L6.384 7.683l-.023.024c-.367.404-.324.95-.122 1.306.583 1.052 1.382 2.493 2.918 4.03 1.532 1.531 2.97 2.33 4.02 2.911.104.06.321.158.593.158.32 0 .615-.136.832-.383l1.321-1.32c.197-.198.456-.306.728-.306.25 0 .48.093.649.261l3.192 3.193c.405.407.238 1.03-.09 1.435zM13.388 3.432c1.178.135 2.566.849 3.534 1.818.978.977 1.693 2.379 1.822 3.57a.686.686 0 101.364-.148c-.164-1.506-1.013-3.189-2.216-4.392-1.192-1.192-2.858-2.04-4.347-2.21a.686.686 0 10-.157 1.362zM12.748 6.304c.637.073 1.519.546 2.096 1.123.583.583 1.056 1.473 1.126 2.117a.686.686 0 101.363-.147c-.119-1.1-.849-2.269-1.52-2.94-.664-.664-1.821-1.39-2.909-1.516a.685.685 0 10-.156 1.363z"/></svg><svg viewBox="0 0 33 32" id="icon-telegram" xmlns="http://www.w3.org/2000/svg"><g clip-path="url(#qclip0_20_46)"><path d="M13.328 20.241l-.526 7.446c.753 0 1.078-.326 1.469-.716l3.526-3.393 7.306 5.387c1.34.753 2.284.357 2.646-1.24l4.796-22.63.001-.002c.425-1.994-.716-2.774-2.022-2.285L2.334 13.676c-1.924.752-1.895 1.832-.327 2.322l7.207 2.257 16.74-10.548c.788-.526 1.505-.235.916.29L13.328 20.241z"/></g><defs><clipPath id="qclip0_20_46"><path transform="translate(.86)" d="M0 0h31.778v32H0z"/></clipPath></defs></svg><svg viewBox="0 0 25 32" id="icon-user" xmlns="http://www.w3.org/2000/svg"><path d="M22.678 19.943a12.5 12.5 0 00-4.085-3.779 9.242 9.242 0 003.093-6.902C21.686 4.155 17.531 0 12.424 0S3.162 4.155 3.162 9.262a9.242 9.242 0 003.092 6.902 12.5 12.5 0 00-4.085 3.779A12.322 12.322 0 000 26.936V32h24.848v-5.064c0-2.505-.75-4.923-2.17-6.993zM5.101 9.263c0-4.039 3.285-7.324 7.323-7.324s7.323 3.285 7.323 7.323-3.285 7.323-7.323 7.323S5.1 13.3 5.1 9.262zM1.939 30.06v-3.125c0-4.109 2.38-7.794 6.101-9.516a9.205 9.205 0 004.384 1.104c1.585 0 3.078-.4 4.383-1.104 3.721 1.722 6.101 5.407 6.101 9.516v3.125H1.94z"/></svg><svg viewBox="0 0 93 29" id="icon-visa" xmlns="http://www.w3.org/2000/svg"><path d="M37.11.473l-4.712 27.582h7.536L44.644.473zm0 0M26.082.504l-7.379 18.808-.785-2.84C16.465 13.052 12.332 8.138 7.484 5.04l6.746 23.004 7.97-.016L34.062.5zm0 0"/><path d="M15.059 2.48C14.62.797 13.352.297 11.777.238H.097L0 .785c9.09 2.203 15.102 7.504 17.598 13.88zm0 0M59.914 5.762c2.465-.04 4.25.5 5.637 1.054l.68.32 1.019-5.98C65.758.598 63.422 0 60.504 0 53.059 0 47.813 3.742 47.77 9.102c-.047 3.96 3.738 6.171 6.597 7.492 2.938 1.355 3.922 2.215 3.906 3.426-.023 1.843-2.34 2.69-4.503 2.69-3.016 0-4.618-.413-7.094-1.444l-.969-.442L44.645 27c1.765.77 5.015 1.434 8.394 1.469 7.918 0 13.066-3.696 13.117-9.426.035-3.133-1.976-5.523-6.328-7.488-2.637-1.278-4.246-2.13-4.23-3.422 0-1.145 1.367-2.371 4.316-2.371zm0 0M86.582.504h-5.82c-1.805 0-3.153.492-3.946 2.289L65.633 28.07h7.91s1.289-3.398 1.582-4.144c.867 0 8.55.012 9.648.012.223.964.918 4.132.918 4.132h6.989zM77.293 18.28c.621-1.582 3-7.707 3-7.707-.04.074.613-1.597 1.004-2.633l.508 2.375s1.445 6.586 1.746 7.965zm0 0"/></svg><svg viewBox="0 0 32 32" id="icon-youtube" xmlns="http://www.w3.org/2000/svg"><g clip-path="url(#tclip0_20_48)"><path d="M31.24 7.905l.039.262c-.384-1.372-1.42-2.43-2.738-2.816l-.028-.007c-2.478-.677-12.447-.677-12.447-.677s-9.944-.014-12.446.677A4.045 4.045 0 00.862 8.14l-.007.028c-.925 4.868-.932 10.717.041 15.93l-.04-.265c.383 1.372 1.42 2.43 2.737 2.816l.028.007c2.475.678 12.447.678 12.447.678s9.942 0 12.446-.678a4.044 4.044 0 002.76-2.795l.006-.028c.421-2.264.662-4.87.662-7.53l-.001-.295.001-.307a43.3 43.3 0 00-.703-7.795zM12.885 20.868v-9.724l8.297 4.87-8.297 4.854z"/></g><defs><clipPath id="tclip0_20_48"><path transform="translate(.164)" d="M0 0h31.778v32H0z"/></clipPath></defs></svg></svg>