<?xml version="1.0" encoding="utf-8"?><svg viewBox="0 0 200 60" xmlns="http://www.w3.org/2000/svg" xmlns:xlink="http://www.w3.org/1999/xlink"><style>:root>svg{display:none}:root>svg:target{display:block}</style><svg viewBox="0 0 32 31" id="icon-cart" xmlns="http://www.w3.org/2000/svg"><path d="M31.798 4.039a.923.923 0 00-.721-.347H6.509L5.822.715A.923.923 0 004.923 0h-4a.923.923 0 000 1.846H4.19l4.663 20.208c.097.419.47.715.9.715h18.494a.923.923 0 100-1.846h-17.76l-.71-3.077h18.532c.431 0 .806-.3.9-.72l2.77-12.308a.923.923 0 00-.18-.78zM27.569 16H9.35L6.937 5.538h22.987L27.57 16zM13.538 24a3.388 3.388 0 00-3.384 3.385 3.388 3.388 0 003.384 3.384 3.388 3.388 0 003.385-3.384A3.388 3.388 0 0013.538 24zm0 4.923A1.54 1.54 0 0112 27.385c0-.849.69-1.539 1.538-1.539.849 0 1.539.69 1.539 1.539a1.54 1.54 0 01-1.539 1.538zM24.615 24a3.388 3.388 0 00-3.384 3.385 3.388 3.388 0 003.384 3.384A3.388 3.388 0 0028 27.385 3.388 3.388 0 0024.615 24zm0 4.923a1.54 1.54 0 01-1.538-1.538c0-.849.69-1.539 1.538-1.539.849 0 1.539.69 1.539 1.539a1.54 1.54 0 01-1.539 1.538z"/></svg><svg viewBox="0 0 32 23" id="icon-del-address" xmlns="http://www.w3.org/2000/svg"><path d="M31.917 14.34l-1.62-2.479a3.866 3.866 0 00-3.25-1.75h-4.19v-2.41a2.671 2.671 0 00-2.669-2.668h-7.841A4.986 4.986 0 007.459.99 4.984 4.984 0 002.48 5.97c0 1.726.884 3.249 2.222 4.142H.508a.508.508 0 100 1.016h5.08v1.016H3.554a.508.508 0 000 1.016h2.032v1.015H.508a.508.508 0 100 1.016h5.08v2.25a2.548 2.548 0 00-1.525 2.328v.502c0 .28.228.508.509.508h4.505a2.811 2.811 0 002.732 2.173c1.33 0 2.445-.93 2.733-2.173h9.773a2.812 2.812 0 002.733 2.173c1.329 0 2.444-.93 2.733-2.173h1.711c.28 0 .508-.227.508-.508v-5.654a.508.508 0 00-.083-.278zM3.497 5.97a3.968 3.968 0 013.962-3.963 3.967 3.967 0 013.963 3.963 3.967 3.967 0 01-3.963 3.963A3.968 3.968 0 013.496 5.97zm3.106 9.221H7.62a.508.508 0 100-1.016H6.603V13.16h3.556a.508.508 0 100-1.016H6.603v-1.016h6.603a.508.508 0 100-1.016h-2.99a4.976 4.976 0 002.218-4.064h7.755c.91 0 1.652.742 1.652 1.653v9.522H6.603v-2.031zm15.238 4.572H14.59a2.797 2.797 0 00-.722-1.524h7.974v1.524zM6.61 18.239h3.142c-.382.413-.642.94-.721 1.524H5.079a1.532 1.532 0 011.53-1.524zm5.2 3.697a1.794 1.794 0 01-1.793-1.792c0-.988.805-1.792 1.792-1.792.989 0 1.793.804 1.793 1.792s-.804 1.792-1.793 1.792zm15.238 0a1.794 1.794 0 01-1.792-1.792c0-.988.804-1.792 1.792-1.792s1.792.804 1.792 1.792-.804 1.792-1.792 1.792zm3.936-2.173h-1.157a2.81 2.81 0 00-2.78-2.427 2.81 2.81 0 00-2.779 2.427h-1.41v-8.635h4.188c.976 0 1.874.482 2.401 1.288l1.537 2.352v4.995z"/><path d="M27.878 20.144a.83.83 0 11-1.661 0 .83.83 0 011.662 0zM12.64 20.144a.83.83 0 11-1.661 0 .83.83 0 011.661 0zM8.127 5.97V3.748a.508.508 0 10-1.016 0v2.056L6.074 7.226a.507.507 0 10.821.598L8.03 6.27a.508.508 0 00.097-.3zM26.876 11.636h-.971a.508.508 0 00-.508.508v3.555c0 .281.227.508.508.508h3.418a.874.874 0 00.764-.44.872.872 0 00.003-.88l-1.187-2.075a2.34 2.34 0 00-2.027-1.176zm-.463 3.556v-2.54h.463c.473 0 .911.254 1.145.664l1.072 1.875h-2.68z"/></svg><svg viewBox="0 0 32 29" id="icon-heart" xmlns="http://www.w3.org/2000/svg"><path d="M29.665 2.777C28.087.987 25.897 0 23.5 0c-3.372 0-5.506 2.014-6.703 3.703-.311.438-.575.878-.797 1.292a12.245 12.245 0 00-.797-1.292C14.006 2.013 11.872 0 8.5 0 6.103 0 3.913.986 2.335 2.777.829 4.486 0 6.774 0 9.22c0 2.662 1.04 5.139 3.272 7.793 1.994 2.373 4.864 4.818 8.187 7.65a385.452 385.452 0 013.883 3.34l.04.035a.935.935 0 001.236 0l.04-.035c1.364-1.193 2.644-2.284 3.883-3.34 3.323-2.832 6.193-5.277 8.187-7.65C30.96 14.36 32 11.883 32 9.22c0-2.446-.83-4.734-2.335-6.443zm-10.34 20.46c-1.068.909-2.167 1.845-3.325 2.852-1.158-1.007-2.257-1.943-3.325-2.853-6.503-5.542-10.8-9.203-10.8-14.016 0-1.99.663-3.837 1.866-5.203A6.258 6.258 0 018.5 1.875c2.57 0 4.232 1.584 5.174 2.912a11.113 11.113 0 011.435 2.854.937.937 0 001.782 0c.15-.461.591-1.662 1.436-2.854.94-1.328 2.602-2.912 5.173-2.912 1.851 0 3.541.76 4.759 2.142 1.203 1.366 1.866 3.213 1.866 5.203 0 4.813-4.297 8.474-10.8 14.016z"/></svg><svg viewBox="0 0 21 20" id="icon-search" xmlns="http://www.w3.org/2000/svg"><path d="M9.02 16.472C4.477 16.472.78 12.777.78 8.236S4.476 0 9.02 0c4.545 0 8.242 3.695 8.242 8.236s-3.697 8.236-8.242 8.236zm0-14.91c-3.682 0-6.679 2.994-6.679 6.674s2.997 6.675 6.68 6.675 6.68-2.995 6.68-6.675c0-3.68-2.997-6.675-6.68-6.675zm11.53 18.21a.78.78 0 000-1.105l-3.496-3.493a.782.782 0 00-1.105 1.104l3.496 3.493a.779.779 0 001.105 0z"/></svg><svg viewBox="0 0 23 23" id="icon-tel" xmlns="http://www.w3.org/2000/svg"><path d="M21.463 16.589l-3.194-3.196a2.276 2.276 0 00-1.617-.662c-.64 0-1.242.252-1.698.708l-1.244 1.243c-.966-.537-2.25-1.275-3.583-2.609-1.332-1.332-2.07-2.612-2.61-3.583l1.244-1.244c.926-.927.945-2.415.043-3.316L5.61.737A2.266 2.266 0 003.993.072 2.39 2.39 0 002.324.75C2.05.97.674 2.186.161 4.69c-.718 3.507.932 6.882 5.695 11.648 5.322 5.32 9.865 5.733 11.13 5.733.264 0 .423-.017.465-.021 2.482-.291 3.37-1.393 4.02-2.198.84-1.043.837-2.416-.008-3.264zm-1.06 2.403c-.61.756-1.186 1.47-3.111 1.697-.001 0-.107.011-.306.011-1.132 0-5.211-.384-10.16-5.331C2.433 10.974.891 7.96 1.504 4.966c.448-2.185 1.635-3.114 1.682-3.15l.04-.03.036-.036a1.03 1.03 0 01.73-.307c.25 0 .479.093.648.263L7.834 4.9c.368.367.348.985-.043 1.377L6.384 7.683l-.023.024c-.367.404-.324.95-.122 1.306.583 1.052 1.382 2.493 2.918 4.03 1.532 1.531 2.97 2.33 4.02 2.911.104.06.321.158.593.158.32 0 .615-.136.832-.383l1.321-1.32c.197-.198.456-.306.728-.306.25 0 .48.093.649.261l3.192 3.193c.405.407.238 1.03-.09 1.435zM13.388 3.432c1.178.135 2.566.849 3.534 1.818.978.977 1.693 2.379 1.822 3.57a.686.686 0 101.364-.148c-.164-1.506-1.013-3.189-2.216-4.392-1.192-1.192-2.858-2.04-4.347-2.21a.686.686 0 10-.157 1.362zM12.748 6.304c.637.073 1.519.546 2.096 1.123.583.583 1.056 1.473 1.126 2.117a.686.686 0 101.363-.147c-.119-1.1-.849-2.269-1.52-2.94-.664-.664-1.821-1.39-2.909-1.516a.685.685 0 10-.156 1.363z"/></svg><svg viewBox="0 0 25 32" id="icon-user" xmlns="http://www.w3.org/2000/svg"><path d="M22.678 19.943a12.5 12.5 0 00-4.085-3.779 9.242 9.242 0 003.093-6.902C21.686 4.155 17.531 0 12.424 0S3.162 4.155 3.162 9.262a9.242 9.242 0 003.092 6.902 12.5 12.5 0 00-4.085 3.779A12.322 12.322 0 000 26.936V32h24.848v-5.064c0-2.505-.75-4.923-2.17-6.993zM5.101 9.263c0-4.039 3.285-7.324 7.323-7.324s7.323 3.285 7.323 7.323-3.285 7.323-7.323 7.323S5.1 13.3 5.1 9.262zM1.939 30.06v-3.125c0-4.109 2.38-7.794 6.101-9.516a9.205 9.205 0 004.384 1.104c1.585 0 3.078-.4 4.383-1.104 3.721 1.722 6.101 5.407 6.101 9.516v3.125H1.94z"/></svg><svg viewBox="0 0 200 60" id="icon_logo" xmlns="http://www.w3.org/2000/svg"><path d="M78.9 30.18c-2.109 0-3.863-.252-5.263-.756-1.382-.504-2.418-1.335-3.108-2.492-.672-1.176-1.008-2.744-1.008-4.704 0-1.997.345-3.565 1.036-4.704.71-1.139 1.754-1.95 3.136-2.436 1.4-.485 3.136-.728 5.208-.728 2.128 0 3.883.252 5.264.756 1.381.485 2.408 1.307 3.08 2.464.69 1.139 1.036 2.688 1.036 4.648 0 1.997-.355 3.584-1.064 4.76-.69 1.157-1.736 1.979-3.136 2.464-1.382.485-3.108.728-5.18.728zm0-2.324c1.27 0 2.316-.075 3.137-.224.84-.168 1.484-.448 1.932-.84.467-.41.784-.97.952-1.68.186-.728.28-1.661.28-2.8 0-1.157-.093-2.1-.28-2.828-.168-.747-.486-1.325-.952-1.736-.448-.41-1.092-.69-1.932-.84-.822-.168-1.867-.252-3.136-.252-1.25 0-2.287.084-3.108.252-.822.15-1.466.43-1.932.84-.467.41-.794.99-.98 1.736-.168.728-.252 1.67-.252 2.828 0 1.139.093 2.072.28 2.8.186.71.513 1.27.98 1.68.467.392 1.11.672 1.932.84.821.15 1.848.224 3.08.224zm-1.483 4.172l.084-8.988-.084-10.556h2.996l-.112 8.624L80.413 32l-2.996.028zM92.225 32l.112-9.072-.112-10.444.616-.056 1.652-.14c.672-.056 1.41-.103 2.212-.14a50.111 50.111 0 012.324-.056c1.773 0 3.145.56 4.116 1.68.989 1.101 1.484 2.763 1.484 4.984 0 1.381-.177 2.53-.532 3.444-.355.896-.831 1.596-1.428 2.1a5.317 5.317 0 01-1.988 1.092 8.215 8.215 0 01-2.24.308c-.616 0-1.25-.019-1.904-.056a18.912 18.912 0 00-1.344-.084V32h-2.968zm6.356-8.736c.56 0 1.008-.037 1.344-.112.355-.075.635-.205.84-.392.28-.28.467-.775.56-1.484.112-.71.168-1.643.168-2.8 0-.933-.047-1.643-.14-2.128-.075-.504-.177-.859-.308-1.064-.131-.224-.261-.373-.392-.448-.168-.13-.448-.233-.84-.308a6.114 6.114 0 00-1.4-.14c-.635 0-1.241.028-1.82.084a24.49 24.49 0 00-1.4.168v8.316c.187.019.607.075 1.26.168.672.093 1.381.14 2.128.14zM108.823 32V12.484h10.248v2.576l-8.596-.112 1.372-1.316-.224 8.288-1.288-1.092h8.036v2.492h-8.036l1.288-1.148.224 8.652-1.372-1.344 8.596-.056V32h-10.248zm14.71 0V12.484h2.968l-.084 9.464v8.82l-1.344-1.344h8.764l-1.344 1.344.028-8.68-.056-9.604h2.968l-.084 9.604.056 8.68-1.344-1.344h8.68l-1.344 1.344v-8.764l-.084-9.52h2.968V32h-20.748zm32.859.392a9.322 9.322 0 01-2.912-.448c-.915-.299-1.727-.821-2.436-1.568-.691-.747-1.232-1.783-1.624-3.108-.392-1.325-.588-3.015-.588-5.068 0-2.053.196-3.733.588-5.04.392-1.325.933-2.352 1.624-3.08.709-.747 1.521-1.26 2.436-1.54a9.322 9.322 0 012.912-.448c1.027 0 1.988.15 2.884.448.915.28 1.717.793 2.408 1.54.709.728 1.26 1.745 1.652 3.052.392 1.307.588 2.996.588 5.068 0 2.053-.196 3.743-.588 5.068-.392 1.325-.943 2.361-1.652 3.108-.691.747-1.493 1.27-2.408 1.568a9.061 9.061 0 01-2.884.448zm0-2.66c.747 0 1.4-.084 1.96-.252a2.537 2.537 0 001.372-1.008c.373-.523.644-1.279.812-2.268.187-.99.28-2.305.28-3.948 0-1.624-.084-2.93-.252-3.92-.168-1.008-.429-1.764-.784-2.268a2.633 2.633 0 00-1.4-1.064c-.56-.187-1.223-.28-1.988-.28-.803 0-1.484.093-2.044.28-.541.187-.989.541-1.344 1.064-.355.504-.616 1.26-.784 2.268-.168.99-.252 2.305-.252 3.948 0 1.624.084 2.93.252 3.92.168.99.429 1.745.784 2.268.373.504.84.84 1.4 1.008.56.168 1.223.252 1.988.252zM179.295 32l-7.756-10.108 7.196-9.408h3.584l-7.42 9.24v.168L183.047 32h-3.752zm-10.808 0l.084-9.912-.084-9.604h2.996V32h-2.996zM82.28 50.168c-.44 0-.856-.064-1.248-.192a2.496 2.496 0 01-1.044-.672c-.296-.32-.528-.764-.696-1.332-.168-.568-.252-1.292-.252-2.172 0-.88.084-1.6.252-2.16.168-.568.4-1.008.696-1.32.304-.32.652-.54 1.044-.66a3.996 3.996 0 011.248-.192c.44 0 .852.064 1.236.192.392.12.736.34 1.032.66.304.312.54.748.708 1.308.168.56.252 1.284.252 2.172 0 .88-.084 1.604-.252 2.172-.168.568-.404 1.012-.708 1.332a2.41 2.41 0 01-1.032.672 3.884 3.884 0 01-1.236.192zm0-1.14c.32 0 .6-.036.84-.108.24-.072.436-.216.588-.432.16-.224.276-.548.348-.972.08-.424.12-.988.12-1.692 0-.696-.036-1.256-.108-1.68-.072-.432-.184-.756-.336-.972a1.128 1.128 0 00-.6-.456c-.24-.08-.524-.12-.852-.12-.344 0-.636.04-.876.12-.232.08-.424.232-.576.456-.152.216-.264.54-.336.972-.072.424-.108.988-.108 1.692 0 .696.036 1.256.108 1.68.072.424.184.748.336.972.16.216.36.36.6.432.24.072.524.108.852.108zm5.184.972v-8.364h1.272l-.036 3.972-.564-.42h4.428l-.564.42-.036-3.972h1.272V50h-1.272L92 45.872l.564.42h-4.428l.564-.42.036 4.128h-1.272zm7.4.168l-.215-.948c.112-.016.216-.032.312-.048.096-.024.176-.048.24-.072a.835.835 0 00.372-.24c.088-.104.156-.28.204-.528.056-.248.096-.608.12-1.08l.372-5.616h4.848V50h-1.272l.06-7.272h-2.472l-.312 4.644a8.46 8.46 0 01-.204 1.428c-.096.384-.264.676-.504.876-.168.144-.392.26-.672.348a2.613 2.613 0 01-.876.144zm7.432-.168l2.28-8.364h1.728l2.28 8.364h-1.296l-.648-2.556.672.444h-3.72l.648-.444-.636 2.556h-1.308zm1.956-2.628l-.432-.576h3.252l-.432.576-1.296-5.148.708.552h-1.212l.696-.552-1.284 5.148zM109.788 50v-8.364h1.224l-.048 4.248v2.292l3.096-6.54h1.752V50h-1.224l.048-3.852v-3.216L111.3 50h-1.512zm2.988-8.676c-.608 0-1.08-.144-1.416-.432-.328-.288-.508-.748-.54-1.38l.816-.036c.04.288.144.504.312.648.168.144.444.216.828.216.424 0 .72-.072.888-.216.168-.144.272-.36.312-.648l.72.036c-.016.424-.104.772-.264 1.044-.16.264-.38.46-.66.588-.272.12-.604.18-.996.18zM118.167 50v-8.364h1.272l-.036 3.972-.564-.42h4.428l-.564.42-.036-3.972h1.272V50h-1.272l.036-4.128.564.42h-4.428l.564-.42.036 4.128h-1.272zm7.413-3.396v-1.068h2.856v1.068h-2.856zM130.037 50l.288-8.364h1.74l1.74 5.244h.084l1.764-5.244h1.74l.288 8.364h-1.26l-.048-7.032h-.084l-1.716 5.136h-1.44l-1.704-5.136h-.084L131.297 50h-1.26zm8.762 0l2.28-8.364h1.728L145.088 50h-1.297l-.648-2.556.672.444h-3.72l.648-.444-.636 2.556h-1.308zm1.956-2.628l-.432-.576h3.252l-.432.576-1.296-5.148.708.552h-1.212l.696-.552-1.284 5.148zM146.292 50l.048-3.888-.048-4.476.264-.024.708-.06a26.058 26.058 0 011.944-.084c.76 0 1.348.24 1.764.72.424.472.636 1.184.636 2.136 0 .592-.076 1.084-.228 1.476-.152.384-.356.684-.612.9a2.279 2.279 0 01-.852.468 3.52 3.52 0 01-.96.132c-.264 0-.536-.008-.816-.024a8.106 8.106 0 00-.576-.036V50h-1.272zm2.724-3.744c.24 0 .432-.016.576-.048a.755.755 0 00.36-.168c.12-.12.2-.332.24-.636.048-.304.072-.704.072-1.2 0-.4-.02-.704-.06-.912-.032-.216-.076-.368-.132-.456a.513.513 0 00-.168-.192c-.072-.056-.192-.1-.36-.132a2.62 2.62 0 00-.6-.06c-.272 0-.532.012-.78.036-.248.024-.448.048-.6.072v3.564c.08.008.26.032.54.072.288.04.592.06.912.06zM158.037 50l-3.324-4.332 3.084-4.032h1.536l-3.18 3.96v.072L159.645 50h-1.608zm-4.632 0l.036-4.248-.036-4.116h1.284V50h-1.284zm7.231 0v-8.364h4.392v1.104l-3.684-.048.588-.564-.096 3.552-.552-.468h3.444v1.068h-3.444l.552-.492.096 3.708-.588-.576 3.684-.024V50h-4.392zm7.408 0l.024-7.296-2.34.036v-1.104h5.916v1.104l-2.364-.036.024 7.296h-1.26z"/><path opacity=".2" d="M54.648 59.067c0-.512-11.474-.933-25.611-.933-14.138 0-25.612.421-25.612.933S14.9 60 29.037 60c14.17 0 25.611-.421 25.611-.933z"/><path d="M29.398 11.81c11.146 0 20.187 8.277 20.187 18.481v18.482H29.398c-11.145 0-20.186-8.278-20.186-18.482V11.81h20.186z"/><path opacity=".3" d="M46.692 20.78c-1.677 1.776-2.696 4.093-2.696 6.622 0 3.762 2.236 7.043 5.556 8.819v-5.93c0-3.461-1.019-6.712-2.86-9.511z"/><path d="M38.769 13.947c-3.157 1.655-5.26 4.756-5.26 8.338 0 5.297 4.7 9.602 10.487 9.602 2.038 0 3.945-.542 5.556-1.475v-.12c0-7.104-4.372-13.275-10.783-16.345z"/><path opacity=".5" d="M22.922 15.39c-5.195 0-9.962 1.656-13.71 4.456V30.32c0 10.205 9.04 18.482 20.186 18.482h9.666c3.518-3.552 5.655-8.247 5.655-13.425 0-11.046-9.764-19.986-21.797-19.986z"/><path d="M49.552 48.743l-20.154.03c-11.145 0-20.186-8.278-20.186-18.482V11.84l40.34 36.903z"/><path opacity=".3" d="M12.335 18.432c0 14.026 12.428 25.374 27.716 25.374 1.315 0 2.597-.09 3.846-.24L12.598 14.94a24.621 24.621 0 00-.263 3.492z"/><path opacity=".3" d="M49.552 48.773L9.376 11.99c4.734 6.472 10.192 13.034 15.748 18.452 4.34 4.214 16.866 13.635 24.428 18.33z"/><path opacity=".3" d="M22.395 23.88L9.212 11.84V30.32c0 8.157 5.786 15.08 13.775 17.519-3.419-3.161-5.523-7.495-5.523-12.251 0-4.515 1.874-8.609 4.931-11.71z"/><path opacity=".3" d="M40.347 40.345c-3.42 3.822-8.614 6.29-14.434 6.29-3.88 0-7.496-1.083-10.488-2.95 3.617 3.161 8.516 5.118 13.94 5.118h20.187v-.03l-9.205-8.428z"/><path opacity=".3" d="M10.395 22.887c0-2.98.56-5.87 1.611-8.519L9.212 11.84V30.32c0 10.204 9.04 18.482 20.186 18.482h20.187v-.03l-2.005-1.836a29.736 29.736 0 01-9.337 1.474c-15.387-.03-27.848-11.438-27.848-25.524z"/><path d="M49.224 52.355c1.413-.362 2.893.421 3.254 1.715.395 1.295-.46 2.65-1.907 2.98-1.413.361-2.893-.421-3.254-1.715-.362-1.295.493-2.62 1.907-2.98zm-.526-1.836c-2.532.632-4.044 2.98-3.354 5.297.657 2.318 3.255 3.702 5.786 3.07 2.532-.632 4.044-3.01 3.354-5.297-.658-2.318-3.255-3.672-5.787-3.07z"/><path opacity=".5" d="M52.05 56.177a2.821 2.821 0 01-1.446.903c-1.414.361-2.893-.422-3.255-1.716a2.298 2.298 0 01.888-2.498c-.395-.512-.724-1.084-1.052-1.656-1.578 1.024-2.367 2.86-1.841 4.666.657 2.318 3.254 3.702 5.786 3.07 1.184-.3 2.137-.963 2.762-1.836a34.044 34.044 0 01-1.841-.933z"/><path d="M10.165 52.355c1.413-.331 2.893.451 3.255 1.745.361 1.295-.494 2.65-1.907 2.98-1.414.331-2.894-.451-3.255-1.745-.362-1.295.493-2.65 1.907-2.98zm-.526-1.836c-2.532.602-4.044 2.98-3.387 5.297.658 2.318 3.255 3.702 5.787 3.1 2.531-.602 4.044-2.98 3.419-5.297-.69-2.318-3.288-3.703-5.82-3.1z"/><path opacity=".5" d="M12.96 56.207a2.596 2.596 0 01-1.447.873c-1.414.331-2.893-.452-3.255-1.746-.263-.963.132-1.926.888-2.498-.395-.512-.723-1.084-1.02-1.656-1.577.994-2.4 2.83-1.873 4.636.657 2.317 3.254 3.702 5.786 3.1 1.184-.27 2.17-.963 2.762-1.836-.658-.24-1.25-.542-1.841-.873z"/><path d="M10.494 10.546c-.625 0-1.15-.482-1.15-1.054 0-2.468-.757-4.334-2.204-5.568-2.334-2.017-5.852-1.806-5.885-1.806-.624.06-1.183-.392-1.25-.964C-.06.582.434.071 1.059.011c.197 0 4.537-.301 7.628 2.317 1.972 1.656 2.959 4.064 2.959 7.134 0 .602-.494 1.084-1.151 1.084z"/></svg><svg viewBox="0 0 26 17" id="icon_nav" xmlns="http://www.w3.org/2000/svg"><path d="M.917 0h24.896v1H.917zM.917 8h19.917v1H.917zM.917 16h24.896v1H.917z"/></svg></svg>