<svg width="24" height="22" viewBox="0 0 24 22" fill="none" xmlns="http://www.w3.org/2000/svg">
<path d="M22.2489 2.08173C21.0652 0.738585 19.423 -0.00109863 17.625 -0.00109863C15.0962 -0.00109863 13.4952 1.50921 12.5974 2.77623C12.3645 3.10501 12.1664 3.43468 12 3.7449C11.8336 3.43468 11.6355 3.10501 11.4026 2.77623C10.5048 1.50921 8.90381 -0.00109863 6.375 -0.00109863C4.57697 -0.00109863 2.9348 0.738632 1.75102 2.08178C0.621891 3.36306 0 5.07905 0 6.91363C0 8.91063 0.779672 10.768 2.45367 12.7589C3.94978 14.5383 6.10214 16.3724 8.59453 18.4962C9.52327 19.2877 10.4837 20.1061 11.5062 21.0007L11.5369 21.0276C11.6694 21.1437 11.8347 21.2017 12 21.2017C12.1653 21.2017 12.3306 21.1436 12.4631 21.0276L12.4938 21.0007C13.5163 20.1061 14.4767 19.2877 15.4056 18.4961C17.8979 16.3724 20.0502 14.5383 21.5463 12.7589C23.2203 10.768 24 8.91063 24 6.91363C24 5.07905 23.3781 3.36305 22.2489 2.08173ZM14.4934 17.4259C13.6928 18.1081 12.8688 18.8103 12 19.5655C11.1312 18.8103 10.3072 18.1082 9.50644 17.4258C4.62867 13.2693 1.40625 10.5233 1.40625 6.91363C1.40625 5.42161 1.90336 4.0358 2.80603 3.01154C3.71906 1.97566 4.98652 1.40514 6.375 1.40514C8.30292 1.40514 9.54919 2.59286 10.2551 3.58923C10.8884 4.48285 11.2188 5.38368 11.3315 5.72948C11.4257 6.01893 11.6956 6.21482 12 6.21482C12.3044 6.21482 12.5743 6.01893 12.6685 5.72948C12.7812 5.38368 13.1116 4.48285 13.7449 3.58918C14.4508 2.59286 15.6971 1.40514 17.625 1.40514C19.0135 1.40514 20.2809 1.97566 21.1939 3.01154C22.0966 4.0358 22.5938 5.42161 22.5938 6.91363C22.5938 10.5233 19.3713 13.2693 14.4934 17.4259Z" fill="#C1C1C1"/>
</svg>
