<?xml version="1.0" encoding="UTF-8"?>
<svg xmlns="http://www.w3.org/2000/svg" xmlns:xlink="http://www.w3.org/1999/xlink" width="49px" height="29px" viewBox="0 0 49 29" version="1.1">
<g id="surface1">
<path style=" stroke:none;fill-rule:nonzero;fill:rgb(100%,100%,100%);fill-opacity:1;" d="M 33.933594 0 C 30.191406 0 26.78125 1.417969 24.210938 3.746094 C 21.640625 1.421875 18.230469 0.00390625 14.496094 0.00390625 C 14.464844 0.00390625 14.433594 0.00390625 14.402344 0.00390625 C 6.445312 0.0546875 0 6.527344 0 14.496094 C 0 22.5 6.492188 28.992188 14.492188 28.992188 C 18.230469 28.992188 21.640625 27.574219 24.210938 25.246094 C 23.671875 24.761719 23.1875 24.226562 22.726562 23.664062 L 25.722656 23.664062 C 25.269531 24.214844 24.777344 24.734375 24.25 25.214844 L 24.246094 25.214844 C 24.234375 25.230469 24.222656 25.238281 24.210938 25.246094 C 26.78125 27.578125 30.195312 28.996094 33.9375 28.996094 C 41.941406 28.992188 48.429688 22.503906 48.429688 14.496094 C 48.429688 14.496094 48.429688 14.492188 48.429688 14.492188 C 48.429688 6.488281 41.9375 -0.00390625 33.933594 0 Z M 22.894531 5.246094 L 25.648438 5.246094 C 26.054688 5.738281 26.433594 6.253906 26.773438 6.796875 L 21.859375 6.796875 C 22.175781 6.277344 22.523438 5.746094 22.894531 5.246094 Z M 21.003906 8.320312 L 27.609375 8.320312 C 27.84375 8.820312 28.054688 9.339844 28.234375 9.871094 L 20.21875 9.871094 C 20.300781 9.722656 20.578125 9.117188 21.003906 8.320312 Z M 5.917969 18.191406 L 6.796875 12.648438 L 4.8125 18.191406 L 3.75 18.191406 L 3.613281 12.648438 L 2.671875 18.191406 L 1.183594 18.191406 L 2.417969 10.839844 L 4.671875 10.839844 L 4.75 15.351562 L 6.269531 10.839844 L 8.714844 10.839844 L 7.496094 18.191406 Z M 11.183594 18.179688 L 11.234375 17.589844 C 11.210938 17.59375 10.738281 18.300781 9.648438 18.300781 C 9.078125 18.300781 8.160156 17.988281 8.160156 16.636719 C 8.160156 14.917969 9.5625 14.347656 10.898438 14.347656 C 11.105469 14.347656 11.558594 14.386719 11.558594 14.386719 C 11.558594 14.386719 11.609375 14.28125 11.609375 13.996094 C 11.609375 13.53125 11.191406 13.464844 10.617188 13.464844 C 9.601562 13.464844 8.933594 13.738281 8.933594 13.738281 L 9.15625 12.40625 C 9.15625 12.40625 9.96875 12.066406 11.027344 12.066406 C 11.574219 12.066406 13.148438 12.125 13.148438 13.929688 L 12.539062 18.179688 Z M 16.925781 16.304688 C 16.925781 18.355469 14.9375 18.269531 14.589844 18.269531 C 13.296875 18.269531 12.894531 18.089844 12.859375 18.078125 L 13.066406 16.730469 C 13.066406 16.71875 13.714844 16.964844 14.4375 16.964844 C 14.851562 16.964844 15.390625 16.925781 15.390625 16.425781 C 15.390625 15.683594 13.460938 15.859375 13.460938 14.09375 C 13.460938 12.535156 14.617188 12.078125 15.761719 12.078125 C 16.640625 12.078125 17.183594 12.199219 17.183594 12.199219 L 16.988281 13.5625 C 16.988281 13.5625 16.152344 13.492188 15.933594 13.492188 C 15.386719 13.492188 15.085938 13.613281 15.085938 13.996094 C 15.085938 14.769531 16.925781 14.390625 16.925781 16.304688 Z M 19.3125 16.84375 C 19.449219 16.84375 19.601562 16.796875 19.710938 16.796875 L 19.515625 18.109375 C 19.359375 18.152344 18.921875 18.308594 18.359375 18.3125 C 17.640625 18.316406 17.128906 17.914062 17.128906 17.003906 C 17.128906 16.390625 18.007812 11.347656 18.039062 11.316406 L 19.582031 11.316406 L 19.425781 12.21875 L 20.195312 12.21875 L 20 13.671875 L 19.183594 13.671875 L 18.746094 16.347656 C 18.714844 16.558594 18.773438 16.84375 19.3125 16.84375 Z M 22.703125 12.046875 C 24.398438 12.046875 24.90625 13.285156 24.90625 14.304688 C 24.90625 14.710938 24.703125 15.710938 24.703125 15.710938 L 21.566406 15.710938 C 21.566406 15.710938 21.277344 16.945312 22.933594 16.945312 C 23.710938 16.945312 24.570312 16.566406 24.570312 16.566406 L 24.300781 18.054688 C 24.300781 18.054688 23.800781 18.308594 22.671875 18.308594 C 21.441406 18.308594 20.003906 17.789062 20.003906 15.609375 C 20.003906 13.71875 21.152344 12.046875 22.703125 12.046875 Z M 26.792969 22.171875 L 21.648438 22.171875 C 21.335938 21.671875 21.046875 21.15625 20.792969 20.617188 L 27.636719 20.617188 C 27.386719 21.152344 27.101562 21.671875 26.792969 22.171875 Z M 26.445312 18.199219 L 24.863281 18.199219 L 25.824219 12.21875 L 27.261719 12.21875 L 27.125 13.085938 C 27.125 13.085938 27.636719 12.144531 28.328125 12.144531 C 28.527344 12.144531 28.625 12.164062 28.625 12.164062 C 28.421875 12.582031 28.238281 12.964844 28.050781 13.953125 C 26.980469 13.574219 26.898438 15.644531 26.445312 18.199219 Z M 32.480469 18.109375 C 32.480469 18.109375 31.652344 18.320312 31.132812 18.320312 C 29.289062 18.320312 28.355469 17.050781 28.355469 15.125 C 28.355469 12.222656 30.089844 10.675781 31.867188 10.675781 C 32.675781 10.675781 33.605469 11.054688 33.605469 11.054688 L 33.355469 12.6875 C 33.355469 12.6875 32.722656 12.246094 31.9375 12.246094 C 30.890625 12.246094 29.945312 13.25 29.945312 15.070312 C 29.945312 15.96875 30.386719 16.804688 31.480469 16.804688 C 32.003906 16.804688 32.757812 16.425781 32.757812 16.425781 Z M 36.195312 18.179688 L 36.25 17.589844 C 36.222656 17.59375 35.753906 18.300781 34.664062 18.300781 C 34.097656 18.300781 33.175781 17.988281 33.175781 16.636719 C 33.175781 14.917969 34.578125 14.347656 35.910156 14.347656 C 36.121094 14.347656 36.574219 14.386719 36.574219 14.386719 C 36.574219 14.386719 36.628906 14.28125 36.628906 13.996094 C 36.628906 13.53125 36.207031 13.464844 35.632812 13.464844 C 34.617188 13.464844 33.949219 13.738281 33.949219 13.738281 L 34.175781 12.40625 C 34.175781 12.40625 34.988281 12.066406 36.046875 12.066406 C 36.589844 12.066406 38.164062 12.125 38.164062 13.929688 L 37.558594 18.179688 C 37.558594 18.179688 36.195312 18.179688 36.195312 18.179688 Z M 39.402344 18.199219 L 37.820312 18.199219 L 38.78125 12.21875 L 40.222656 12.21875 L 40.082031 13.085938 C 40.082031 13.085938 40.597656 12.144531 41.285156 12.144531 C 41.488281 12.144531 41.585938 12.164062 41.585938 12.164062 C 41.378906 12.582031 41.195312 12.964844 41.011719 13.953125 C 39.9375 13.574219 39.855469 15.644531 39.402344 18.199219 Z M 44.132812 18.183594 L 44.199219 17.632812 C 44.199219 17.632812 43.6875 18.28125 42.761719 18.28125 C 41.480469 18.28125 40.851562 17.039062 40.851562 15.773438 C 40.851562 13.816406 42.027344 12.109375 43.441406 12.109375 C 44.351562 12.113281 44.933594 12.914062 44.933594 12.914062 L 45.265625 10.851562 L 46.8125 10.847656 L 45.632812 18.183594 Z M 47.183594 17.976562 C 47.144531 18.050781 47.085938 18.109375 47.011719 18.152344 C 46.9375 18.195312 46.859375 18.214844 46.777344 18.214844 C 46.699219 18.214844 46.621094 18.195312 46.546875 18.152344 C 46.472656 18.109375 46.414062 18.050781 46.375 17.976562 C 46.332031 17.902344 46.3125 17.828125 46.3125 17.746094 C 46.3125 17.664062 46.335938 17.585938 46.375 17.511719 C 46.414062 17.4375 46.476562 17.378906 46.550781 17.339844 C 46.625 17.296875 46.699219 17.277344 46.777344 17.277344 C 46.859375 17.277344 46.933594 17.296875 47.007812 17.339844 C 47.085938 17.378906 47.144531 17.4375 47.183594 17.511719 C 47.226562 17.585938 47.246094 17.664062 47.246094 17.746094 C 47.246094 17.828125 47.226562 17.902344 47.183594 17.976562 Z M 47.183594 17.976562 "/>
</g>
</svg>
